<svg xmlns="http://www.w3.org/2000/svg" width="512" height="512" viewBox="0 0 512 512">
  <defs>
    <filter id="cloth">
      <feTurbulence baseFrequency="0.075" numOctaves="4" seed="9"/>
      <feColorMatrix type="matrix" values="0.35 0 0 0 0.05 0 0.42 0 0 0.07 0 0 0.32 0 0.06 0 0 0 1 0"/>
      <feBlend in2="SourceGraphic" mode="multiply"/>
    </filter>
  </defs>
  <rect width="512" height="512" fill="#151915" filter="url(#cloth)"/>
  <g opacity="0.75">
    <path d="M0 120 C70 150 102 84 176 116 C247 147 304 120 368 150 C430 179 470 124 512 152 L512 196 C438 165 401 223 330 190 C274 164 226 188 166 166 C98 142 66 196 0 162Z" fill="#273327"/>
    <path d="M0 326 C78 292 124 358 195 320 C262 284 313 342 384 306 C438 278 480 310 512 290 L512 354 C451 376 416 338 356 370 C286 408 244 344 176 384 C105 424 67 366 0 392Z" fill="#0c100c"/>
  </g>
  <g stroke="#766b52" stroke-width="4" opacity="0.62">
    <path d="M42 64 l136 76 M86 426 l202 -52 M294 76 l160 42 M346 226 l-86 142"/>
  </g>
</svg>
